# xmcd
#
# Track frame offsets:
#	150
#	33523
#	68628
#	104788
#	144903
#	191651
#	240626
#	277492
#
# Disc length: 4335 seconds
#
# Revision: 0
# Processed by: cddbd v1.5.1PL0 Copyright (c) Steve Scherf et al.
# Submitted via: dBpowerAMP V4.0
#
DISCID=7b10ed08
DTITLE=Dan Brown - DF03 - Digital Fortress
DYEAR=2004
DGENRE=Spoken
TTITLE0=0301 Digital Fortress
TTITLE1=0302 Digital Fortress
TTITLE2=0303 Digital Fortress
TTITLE3=0304 Digital Fortress
TTITLE4=0305 Digital Fortress
TTITLE5=0306 Digital Fortress
TTITLE6=0307 Digital Fortress
TTITLE7=0308 Digital Fortress
EXTD=
EXTT0=
EXTT1=
EXTT2=
EXTT3=
EXTT4=
EXTT5=
EXTT6=
EXTT7=
PLAYORDER=
